<?xml version="1.0" encoding="utf-8"?>
<!-- Generator: Adobe Illustrator 21.1.0, SVG Export Plug-In . SVG Version: 6.00 Build 0)  -->
<svg version="1.1" id="Ebene_1" xmlns="http://www.w3.org/2000/svg" xmlns:xlink="http://www.w3.org/1999/xlink" x="0px" y="0px"
	 viewBox="0 0 1000 304.3" style="enable-background:new 0 0 1000 304.3;" xml:space="preserve">
<style type="text/css">
	.st0{fill:#00A5E1;}
	.st1{fill-rule:evenodd;clip-rule:evenodd;}
	.st2{fill:none;}
</style>
<rect x="25" y="20.6" class="st0" width="151.9" height="262.4"/>
<g>
	<rect x="16.5" y="200" transform="matrix(0.4352 -0.9003 0.9003 0.4352 -143.1347 185.8241)" width="120.1" height="14.1"/>
</g>
<g>
	<rect x="65.3" y="200" transform="matrix(0.4347 -0.9006 0.9006 0.4347 -115.5939 229.9254)" width="120.1" height="14.1"/>
</g>
<path class="st1" d="M261.2,289.4v-8.4c-4.2,6.6-10.4,9.8-18.6,9.8c-5.3,0-10.1-1.5-14.6-4.4c-4.4-2.9-7.5-6.6-10.3-12.2
	c-2.4-4.8-3-7.9-3.7-13.3c-1-8.9,1.1-17.3,3.3-22.7c2.2-5.4,5.5-9.5,9.9-12.4c4.4-2.9,9.3-4.3,14.8-4.3c4,0,7.6,0.8,10.7,2.5
	c3.1,1.7,5.7,3.9,7.6,6.6v-33h11.3v91.6H261.2L261.2,289.4z M225.7,256.2c0,8.5,1.8,14.8,5.4,19c3.6,4.2,7.8,6.3,12.7,6.3
	c4.9,0,9.1-2,12.6-6c3.4-4,5.2-10.1,5.2-18.4c0-9.1-1.8-15.7-5.3-19.9c-3.5-4.2-7.8-6.4-13-6.4c-5,0-9.2,2-12.6,6.1
	C227.3,241.1,225.7,247.5,225.7,256.2L225.7,256.2z"/>
<path class="st1" d="M289.7,256.1c0-12.3,3.4-21.4,10.2-27.3c5.7-4.9,12.7-7.4,20.9-7.4c9.1,0,16.6,3,22.4,9
	c5.8,6,8.7,14.2,8.7,24.7c0,8.5-1.3,15.2-3.8,20.1c-2.6,4.9-6.3,8.7-11.2,11.4c-4.9,2.7-10.2,4.1-16,4.1c-9.3,0-16.8-3-22.5-8.9
	C292.5,275.9,289.7,267.3,289.7,256.1L289.7,256.1z M301.2,256.2c0,8.5,1.9,14.8,5.6,19c3.7,4.2,8.4,6.3,14,6.3
	c5.6,0,10.3-2.1,14-6.4c3.7-4.2,5.6-10.7,5.6-19.4c0-8.2-1.9-14.4-5.6-18.6c-3.7-4.2-8.4-6.3-13.9-6.3c-5.6,0-10.3,2.1-14,6.3
	C303,241.4,301.2,247.7,301.2,256.2L301.2,256.2z"/>
<path d="M414.9,289.4v-9.9c-5.2,7.5-12.2,11.3-21,11.3c-3.9,0-7.5-0.8-10.9-2.2c-3.4-1.5-5.9-3.4-7.5-5.7c-1.6-2.3-2.8-5-3.5-8.3
	c-0.5-2.2-0.7-5.7-0.7-10.5v-41.1h11.3v36.8c0,5.9,0.2,9.8,0.7,11.9c0.7,3,2.2,5.3,4.5,7c2.3,1.7,5.1,2.5,8.5,2.5s6.5-0.9,9.5-2.6
	c3-1.7,5-4.1,6.3-7.1c1.2-3,1.8-7.3,1.8-12.9v-35.5H425v66.4H414.9L414.9,289.4z"/>
<path class="st1" d="M459.6,289.4h-10.5v-91.6h11.3v32.7c4.8-5.9,10.8-8.9,18.2-8.9c4.1,0,8,0.8,11.6,2.5c3.6,1.6,6.6,4,9,6.9
	c2.4,3,4.2,6.6,5.5,10.8c1.3,4.2,2,8.7,2,13.5c0,11.4-2.8,20.1-8.4,26.3c-5.6,6.2-12.4,9.3-20.2,9.3c-7.8,0-14-3.3-18.4-9.8V289.4
	L459.6,289.4z M459.4,255.6c0,7.9,1.1,13.7,3.2,17.2c3.5,5.8,8.3,8.7,14.4,8.7c4.9,0,9.2-2.1,12.7-6.4c3.6-4.3,5.4-10.6,5.4-19.1
	c0-8.7-1.7-15-5.2-19.2c-3.4-4.1-7.6-6.2-12.4-6.2c-4.9,0-9.2,2.1-12.7,6.4C461.2,241.4,459.4,247.6,459.4,255.6L459.4,255.6z"/>
<polygon points="526.6,289.4 526.6,197.7 537.8,197.7 537.8,289.4 526.6,289.4 "/>
<path class="st1" d="M607,267.9l11.7,1.5c-1.8,6.8-5.2,12-10.2,15.8c-4.9,3.7-11.3,5.6-19,5.6c-9.7,0-17.4-3-23-8.9
	c-5.7-6-8.5-14.3-8.5-25.1c0-11.1,2.9-19.8,8.6-25.9c5.7-6.2,13.2-9.2,22.3-9.2c8.9,0,16.1,3,21.7,9c5.6,6,8.4,14.5,8.4,25.5
	c0,0.7,0,1.7-0.1,3h-49.5c0.4,7.3,2.5,12.9,6.2,16.7c3.7,3.9,8.3,5.8,13.9,5.8c4.1,0,7.6-1.1,10.5-3.3
	C603,276.1,605.3,272.6,607,267.9L607,267.9z M570.2,249.8h37c-0.5-5.6-1.9-9.8-4.2-12.6c-3.6-4.3-8.2-6.5-13.9-6.5
	c-5.2,0-9.5,1.7-13,5.2C572.5,239.4,570.6,244,570.2,249.8L570.2,249.8z"/>
<polygon points="752.1,289.4 752.1,197.7 763.3,197.7 763.3,289.4 752.1,289.4 "/>
<path class="st1" d="M830.6,281c-4.2,3.6-8.2,6.1-12.1,7.5c-3.9,1.5-8,2.2-12.4,2.2c-7.3,0-12.9-1.8-16.8-5.3
	c-3.9-3.6-5.9-8.1-5.9-13.6c0-3.2,0.7-6.2,2.2-8.9c1.5-2.7,3.4-4.8,5.8-6.4c2.4-1.6,5.1-2.8,8.1-3.7c2.2-0.6,5.6-1.1,10-1.7
	c9.1-1.1,15.8-2.4,20.1-3.9c0-1.5,0.1-2.5,0.1-2.9c0-4.6-1.1-7.8-3.2-9.7c-2.9-2.5-7.2-3.8-12.8-3.8c-5.3,0-9.2,0.9-11.8,2.8
	c-2.5,1.9-4.4,5.2-5.6,9.9l-11-1.5c1-4.7,2.7-8.5,5-11.4c2.3-2.9,5.6-5.1,10-6.7c4.3-1.6,9.4-2.3,15.1-2.3c5.7,0,10.3,0.7,13.9,2
	c3.6,1.3,6.2,3,7.8,5c1.7,2,2.8,4.6,3.5,7.7c0.4,1.9,0.6,5.4,0.6,10.3v14.9c0,10.4,0.2,17,0.7,19.8c0.5,2.8,1.4,5.5,2.8,8h-11.8
	C831.7,287,830.9,284.2,830.6,281L830.6,281z M829.7,256.1c-4.1,1.7-10.2,3.1-18.4,4.2c-4.6,0.7-7.9,1.4-9.8,2.2
	c-1.9,0.8-3.4,2-4.5,3.6c-1,1.6-1.6,3.4-1.6,5.3c0,3,1.1,5.5,3.4,7.5c2.3,2,5.6,3,10,3c4.3,0,8.2-0.9,11.6-2.8
	c3.4-1.9,5.9-4.5,7.4-7.7c1.2-2.5,1.8-6.3,1.8-11.2L829.7,256.1L829.7,256.1z"/>
<path d="M860.4,269.5l11.1-1.8c0.6,4.5,2.4,7.9,5.2,10.3c2.9,2.4,6.9,3.6,12,3.6c5.2,0,9-1.1,11.5-3.2c2.5-2.1,3.8-4.6,3.8-7.4
	c0-2.5-1.1-4.5-3.4-6c-1.6-1-5.4-2.3-11.5-3.8c-8.2-2.1-13.9-3.9-17.1-5.4c-3.2-1.5-5.6-3.6-7.2-6.3c-1.6-2.7-2.5-5.6-2.5-8.9
	c0-2.9,0.7-5.7,2-8.2c1.4-2.5,3.2-4.6,5.5-6.3c1.7-1.3,4.1-2.4,7.1-3.3c3-0.9,6.3-1.3,9.7-1.3c5.2,0,9.8,0.8,13.7,2.3
	c3.9,1.5,6.8,3.5,8.7,6.1c1.9,2.6,3.2,6,3.9,10.3l-11,1.5c-0.5-3.5-1.9-6.2-4.3-8.1c-2.4-1.9-5.8-2.9-10.1-2.9
	c-5.1,0-8.8,0.9-11,2.6c-2.2,1.7-3.3,3.7-3.3,6c0,1.5,0.5,2.8,1.4,3.9c0.9,1.2,2.3,2.2,4.3,3c1.1,0.4,4.4,1.4,9.9,2.9
	c7.9,2.1,13.5,3.9,16.6,5.2c3.2,1.3,5.6,3.3,7.4,5.9c1.8,2.6,2.7,5.8,2.7,9.6c0,3.7-1.1,7.3-3.3,10.6c-2.2,3.3-5.3,5.9-9.5,7.7
	c-4.1,1.8-8.8,2.7-14,2.7c-8.6,0-15.2-1.8-19.7-5.4C864.5,281.8,861.6,276.5,860.4,269.5L860.4,269.5z"/>
<path d="M935.3,289.4v-91.6h11.3v33c5.2-6.1,11.8-9.2,19.8-9.2c4.9,0,9.1,1,12.8,2.9c3.6,1.9,6.2,4.6,7.7,8
	c1.6,3.4,2.3,8.4,2.3,14.9v42h-11.3v-42c0-5.6-1.2-9.7-3.6-12.3c-2.4-2.6-5.8-3.8-10.3-3.8c-3.3,0-6.4,0.9-9.3,2.6
	c-2.9,1.7-5,4.1-6.2,7c-1.2,2.9-1.9,7-1.9,12.2v36.3H935.3L935.3,289.4z"/>
<g>
	<path d="M634.4,246.9c0.4,8.5,2.9,16.5,7.2,23.8c4.4,7.4,8.7,10.7,16.8,15.3c5.1,2.9,19.6,5.9,28.3,5.9l0.8,0
		c7.4-0.2,16-0.8,24.9-5.8c7.6-4.3,12.3-8.7,16.1-15.2c3.6-6.1,5.2-12.4,5.2-20.5c0-6.7-1.8-12.6-5.7-19c-3.5-5.7-8.3-8.4-15.7-12.2
		c-4.3-2.1-13.7-6.3-28.7-10.1c-15.3-3.8-24-7.5-28.2-11.7c-3.7-3.8-5.6-8.5-5.6-14.1c0-6.8,4.1-14.8,9.4-18.6
		c6.4-4.5,14.3-6.7,24.1-6.7c10.5,0,19.2,2.5,25.1,7.1c3.9,3.1,8.6,8.4,10.7,21.9l12.1-0.8c-0.5-7.6-2.6-14.5-6.2-20.6
		c-3.8-6.4-9.4-11.4-16.6-14.7c-7.2-3.4-15.7-5.1-25.3-5.1c-8.6,0-16.6,1.6-23.6,4.8c-6.9,3.2-12.3,7.8-15.9,13.9
		c-3.6,6.1-5.5,12.8-5.5,19.8c0,6.4,1.5,12.2,4.4,17.3c2.9,5.1,7.5,9.5,13.5,13c4.7,2.8,13.2,5.8,25.1,8.9
		c12.4,3.3,20.2,5.6,23.8,7.2c5.8,2.4,10,5.5,12.6,9.1c2.6,3.7,3.9,8,3.9,12.9c0,4.8-1.3,9.3-4,13.4c-2.7,4.1-6.7,7.3-12.1,9.7
		c-5.3,2.3-11.5,3.4-18.3,3.4c-7.7,0-14.8-1.5-21-4.5c-6.3-3-11-7.1-14-12c-2.8-4.5-4.6-10.3-5.5-17.1L634.4,246.9z"/>
</g>
<path d="M176.8,297.1H24.9c-7.8,0-14.1-6.3-14.1-14.1V20.6c0-7.8,6.3-14.1,14.1-14.1h151.9c7.8,0,14.1,6.3,14.1,14.1v262.5
	C190.9,290.8,184.6,297.1,176.8,297.1z M176.8,20.6l-151.9,0l0,262.4l151.9,0L176.8,20.6z"/>
<rect class="st2" width="1000" height="304.3"/>
</svg>
